<?xml version="1.0" standalone="no"?>
<!DOCTYPE svg PUBLIC "-//W3C//DTD SVG 20010904//EN"
 "http://www.w3.org/TR/2001/REC-SVG-20010904/DTD/svg10.dtd">
<svg version="1.0" xmlns="http://www.w3.org/2000/svg"
 width="100.000000pt" height="100.000000pt" viewBox="0 0 100.000000 100.000000"
 preserveAspectRatio="xMidYMid meet">
<metadata>
Created by potrace 1.14, written by Peter Selinger 2001-2017
</metadata>
<g transform="translate(0.000000,100.000000) scale(0.100000,-0.100000)"
fill="#000000" stroke="none">
<path d="M390 793 c-63 -23 -152 -114 -173 -177 -9 -27 -17 -80 -17 -116 0
-117 70 -223 179 -274 67 -30 190 -29 251 3 61 32 117 86 148 146 36 70 37
187 2 260 -29 60 -84 116 -142 146 -57 30 -183 36 -248 12z m190 -138 c46 -24
82 -79 87 -133 13 -150 -166 -240 -275 -139 -84 78 -68 222 29 270 42 21 121
22 159 2z"/>
<path d="M443 624 c-140 -69 -55 -285 96 -244 89 24 125 145 64 212 -43 48
-103 60 -160 32z m105 -82 c6 -9 12 -25 12 -36 0 -52 -75 -76 -104 -34 -22 31
-20 45 9 74 27 27 59 26 83 -4z"/>
</g>
</svg>
