<?xml version="1.0" standalone="no"?>
<!DOCTYPE svg PUBLIC "-//W3C//DTD SVG 20010904//EN"
 "http://www.w3.org/TR/2001/REC-SVG-20010904/DTD/svg10.dtd">
<svg version="1.0" xmlns="http://www.w3.org/2000/svg"
 width="370.000000pt" height="370.000000pt" viewBox="0 0 370.000000 370.000000"
 preserveAspectRatio="xMidYMid meet">
<metadata>
Created by potrace 1.14, written by Peter Selinger 2001-2017
</metadata>
<g transform="translate(0.000000,370.000000) scale(0.100000,-0.100000)"
fill="#000000" stroke="none">
<path d="M1760 3692 c-43 -2 -165 -16 -240 -28 -93 -14 -272 -67 -385 -115
-16 -7 -32 -13 -35 -13 -17 -4 -227 -121 -271 -152 -163 -113 -333 -271 -430
-399 -198 -258 -325 -554 -369 -860 -18 -117 -19 -139 -20 -270 0 -115 3 -157
16 -255 4 -25 8 -56 10 -70 2 -14 16 -77 33 -141 164 -649 677 -1158 1341
-1330 25 -6 54 -12 65 -14 11 -1 47 -7 80 -13 159 -28 421 -32 551 -8 10 2 39
7 64 11 146 23 335 84 490 159 522 252 907 759 1005 1326 44 254 39 504 -16
740 -34 148 -65 236 -139 395 -170 361 -490 681 -863 859 -144 69 -343 132
-476 152 -20 3 -47 7 -61 10 -62 11 -267 21 -350 16z"/>
</g>
</svg>
