<?xml version="1.0" standalone="no"?>
<!DOCTYPE svg PUBLIC "-//W3C//DTD SVG 20010904//EN"
 "http://www.w3.org/TR/2001/REC-SVG-20010904/DTD/svg10.dtd">
<svg version="1.0" xmlns="http://www.w3.org/2000/svg"
 width="262.000000pt" height="262.000000pt" viewBox="0 0 262.000000 262.000000"
 preserveAspectRatio="xMidYMid meet">
<metadata>
Created by potrace 1.14, written by Peter Selinger 2001-2017
</metadata>
<g transform="translate(0.000000,262.000000) scale(0.100000,-0.100000)"
fill="#000000" stroke="none">
<path d="M1287 2614 c-1 -1 -36 -4 -77 -7 -796 -63 -1352 -838 -1155 -1612
117 -463 472 -822 930 -943 103 -27 131 -31 243 -39 l92 -6 0 32 c0 30 2 31
43 32 44 1 59 2 172 20 241 38 501 176 673 358 213 226 325 483 347 797 1 22
3 45 4 52 0 7 14 12 32 12 l31 0 -7 92 c-41 579 -464 1066 -1028 1182 -86 18
-289 38 -300 30z"/>
</g>
</svg>
